<svg id="diagram" xmlns="http://www.w3.org/2000/svg" xmlns:xlink="http://www.w3.org/1999/xlink" width="35.665" height="35.665" viewBox="0 0 35.665 35.665">
  <defs>
    <linearGradient id="linear-gradient" x1="0.5" x2="0.5" y2="1" gradientUnits="objectBoundingBox">
      <stop offset="0" stop-color="#ff5313"/>
      <stop offset="1" stop-color="#feef1e"/>
    </linearGradient>
  </defs>
  <g id="Group_283" data-name="Group 283" transform="translate(0 0)">
    <path id="Path_12512" data-name="Path 12512" d="M11.145,27.306H5.573v2.786h5.573Zm20.34-5.573H28.7V20.619a4.184,4.184,0,0,0-4.18-4.18H19.226V13.932h4.18a4.184,4.184,0,0,0,4.18-4.18V4.18A4.184,4.184,0,0,0,23.405,0H12.26A4.184,4.184,0,0,0,8.08,4.18V9.752a4.184,4.184,0,0,0,4.18,4.18h4.18v2.508H11.145a4.184,4.184,0,0,0-4.18,4.18v1.115H4.18A4.184,4.184,0,0,0,0,25.913v5.573a4.184,4.184,0,0,0,4.18,4.18h8.359a4.184,4.184,0,0,0,4.18-4.18V25.913a4.184,4.184,0,0,0-4.18-4.18H9.752V20.619a1.4,1.4,0,0,1,1.393-1.393H24.52a1.4,1.4,0,0,1,1.393,1.393v1.115H23.127a4.184,4.184,0,0,0-4.18,4.18v5.573a4.184,4.184,0,0,0,4.18,4.18h8.359a4.184,4.184,0,0,0,4.18-4.18V25.913A4.184,4.184,0,0,0,31.486,21.733ZM12.539,24.52a1.4,1.4,0,0,1,1.393,1.393v5.573a1.4,1.4,0,0,1-1.393,1.393H4.18a1.4,1.4,0,0,1-1.393-1.393V25.913A1.4,1.4,0,0,1,4.18,24.52ZM12.26,11.145a1.4,1.4,0,0,1-1.393-1.393V4.18A1.4,1.4,0,0,1,12.26,2.786H23.405A1.4,1.4,0,0,1,24.8,4.18V9.752a1.4,1.4,0,0,1-1.393,1.393Zm20.619,20.34a1.4,1.4,0,0,1-1.393,1.393H23.127a1.4,1.4,0,0,1-1.393-1.393V25.913a1.4,1.4,0,0,1,1.393-1.393h8.359a1.4,1.4,0,0,1,1.393,1.393ZM13.653,8.359h8.359V5.573H13.653ZM24.52,30.092h5.573V27.306H24.52Z" transform="translate(0 0)" fill="url(#linear-gradient)"/>
  </g>
</svg>
